<svg width="4000" height="2000" viewBox="0 0 4000 2000" fill="none" xmlns="http://www.w3.org/2000/svg">
<path fill-rule="evenodd" clip-rule="evenodd" d="M0 352V350C13.8071 350 25 338.807 25 325C25 311.193 13.8071 300 0 300V296.456C153.285 274.53 274.53 153.285 296.456 0H3703.54C3725.47 153.285 3846.72 274.53 4000 296.456V300C3986.19 300 3975 311.193 3975 325C3975 338.807 3986.19 350 4000 350V352C3986.19 352 3975 363.193 3975 377C3975 390.807 3986.19 402 4000 402V404C3986.19 404 3975 415.193 3975 429C3975 442.807 3986.19 454 4000 454V456C3986.19 456 3975 467.193 3975 481C3975 494.807 3986.19 506 4000 506V508C3986.19 508 3975 519.193 3975 533C3975 546.807 3986.19 558 4000 558V560C3986.19 560 3975 571.193 3975 585C3975 598.807 3986.19 610 4000 610V612C3986.19 612 3975 623.193 3975 637C3975 650.807 3986.19 662 4000 662V664C3986.19 664 3975 675.193 3975 689C3975 702.807 3986.19 714 4000 714V716C3986.19 716 3975 727.193 3975 741C3975 754.807 3986.19 766 4000 766V768C3986.19 768 3975 779.193 3975 793C3975 806.807 3986.19 818 4000 818V820C3986.19 820 3975 831.193 3975 845C3975 858.807 3986.19 870 4000 870V872C3986.19 872 3975 883.193 3975 897C3975 910.807 3986.19 922 4000 922V924C3986.19 924 3975 935.193 3975 949C3975 962.807 3986.19 974 4000 974V976C3986.19 976 3975 987.193 3975 1001C3975 1014.81 3986.19 1026 4000 1026V1028C3986.19 1028 3975 1039.19 3975 1053C3975 1066.81 3986.19 1078 4000 1078V1080C3986.19 1080 3975 1091.19 3975 1105C3975 1118.81 3986.19 1130 4000 1130V1132C3986.19 1132 3975 1143.19 3975 1157C3975 1170.81 3986.19 1182 4000 1182V1184C3986.19 1184 3975 1195.19 3975 1209C3975 1222.81 3986.19 1234 4000 1234V1236C3986.19 1236 3975 1247.19 3975 1261C3975 1274.81 3986.19 1286 4000 1286V1288C3986.19 1288 3975 1299.19 3975 1313C3975 1326.81 3986.19 1338 4000 1338V1340C3986.19 1340 3975 1351.19 3975 1365C3975 1378.81 3986.19 1390 4000 1390V1392C3986.19 1392 3975 1403.19 3975 1417C3975 1430.81 3986.19 1442 4000 1442V1444C3986.19 1444 3975 1455.19 3975 1469C3975 1482.81 3986.19 1494 4000 1494V1496C3986.19 1496 3975 1507.19 3975 1521C3975 1534.81 3986.19 1546 4000 1546V1548C3986.19 1548 3975 1559.19 3975 1573C3975 1586.81 3986.19 1598 4000 1598V1600C3986.19 1600 3975 1611.19 3975 1625C3975 1638.81 3986.19 1650 4000 1650V1652C3986.19 1652 3975 1663.19 3975 1677C3975 1690.81 3986.19 1702 4000 1702V1703.54C3846.72 1725.47 3725.47 1846.72 3703.54 2000H296.456C274.53 1846.72 153.285 1725.47 0 1703.54V1702C13.8071 1702 25 1690.81 25 1677C25 1663.19 13.8071 1652 0 1652V1650C13.8071 1650 25 1638.81 25 1625C25 1611.19 13.8071 1600 0 1600V1598C13.8071 1598 25 1586.81 25 1573C25 1559.19 13.8071 1548 0 1548V1546C13.8071 1546 25 1534.81 25 1521C25 1507.19 13.8071 1496 0 1496V1494C13.8071 1494 25 1482.81 25 1469C25 1455.19 13.8071 1444 0 1444V1442C13.8071 1442 25 1430.81 25 1417C25 1403.19 13.8071 1392 0 1392V1390C13.8071 1390 25 1378.81 25 1365C25 1351.19 13.8071 1340 0 1340V1338C13.8071 1338 25 1326.81 25 1313C25 1299.19 13.8071 1288 0 1288V1286C13.8071 1286 25 1274.81 25 1261C25 1247.19 13.8071 1236 0 1236V1234C13.8071 1234 25 1222.81 25 1209C25 1195.19 13.8071 1184 0 1184V1182C13.8071 1182 25 1170.81 25 1157C25 1143.19 13.8071 1132 0 1132V1130C13.8071 1130 25 1118.81 25 1105C25 1091.19 13.8071 1080 0 1080V1078C13.8071 1078 25 1066.81 25 1053C25 1039.19 13.8071 1028 0 1028V1026C13.8071 1026 25 1014.81 25 1001C25 987.193 13.8071 976 0 976V974C13.8071 974 25 962.807 25 949C25 935.193 13.8071 924 0 924V922C13.8071 922 25 910.807 25 897C25 883.193 13.8071 872 0 872V870C13.8071 870 25 858.807 25 845C25 831.193 13.8071 820 0 820V818C13.8071 818 25 806.807 25 793C25 779.193 13.8071 768 0 768V766C13.8071 766 25 754.807 25 741C25 727.193 13.8071 716 0 716V714C13.8071 714 25 702.807 25 689C25 675.193 13.8071 664 0 664V662C13.8071 662 25 650.807 25 637C25 623.193 13.8071 612 0 612V610C13.8071 610 25 598.807 25 585C25 571.193 13.8071 560 0 560V558C13.8071 558 25 546.807 25 533C25 519.193 13.8071 508 0 508V506C13.8071 506 25 494.807 25 481C25 467.193 13.8071 456 0 456V454C13.8071 454 25 442.807 25 429C25 415.193 13.8071 404 0 404V402C13.8071 402 25 390.807 25 377C25 363.193 13.8071 352 0 352Z" fill="#F9DCBF"/>
</svg>
